<svg id="Layer_1" data-name="Layer 1" xmlns="http://www.w3.org/2000/svg" xmlns:xlink="http://www.w3.org/1999/xlink" viewBox="0 0 2738.53 1348.62"><defs><style>.cls-1{fill:#fff;}.cls-2{opacity:0.2;fill:url(#linear-gradient);}.cls-10,.cls-2,.cls-6,.cls-7,.cls-8,.cls-9{isolation:isolate;}.cls-3{fill:url(#linear-gradient-2);}.cls-4{mask:url(#mask);}.cls-5,.cls-8{opacity:0.7;}.cls-6{fill:#94c5ff;opacity:0.06;}.cls-7{fill:#1a32af;fill-opacity:0.4;opacity:0.31;}.cls-8,.cls-9{fill:#0092ff;fill-opacity:0.2;}.cls-9{opacity:0.4;}.cls-10{fill:#05f;opacity:0.1;}</style><linearGradient id="linear-gradient" x1="549.95" y1="510.95" x2="549.95" y2="510.14" gradientTransform="matrix(-1731.73, 0, 0, 827.63, 953135.01, -422306.46)" gradientUnits="userSpaceOnUse"><stop offset="0" stop-color="#1d58f5"/><stop offset="1" stop-color="#3b90f7"/></linearGradient><linearGradient id="linear-gradient-2" x1="549.95" y1="510.95" x2="549.95" y2="510.14" gradientTransform="matrix(-1732.97, 0, 0, 827.63, 953815.46, -422306.46)" xlink:href="#linear-gradient"/><mask id="mask" x="0" y="0" width="2738.53" height="1348.62" maskUnits="userSpaceOnUse"><g transform="translate(376 140.62)"><g id="c"><path id="b" class="cls-1" d="M1556.31,576.22H-7.25s-269.3-340.91,0-412.63,342.28.22,521.19-30.8,252.45-148.16,521.19-96S1287.55-98.34,1556.31-98.34,1556.31,576.22,1556.31,576.22Z"/></g></g></mask></defs><title>wave2</title><path class="cls-2" d="M1556.31,563.18l-1563.56,13s-236-236.58-41.61-360.47,294.06,8.32,562.8-63.4S766.39-28.42,1035.13,4.18,1287.55-98.34,1556.31-98.34,1556.31,563.18,1556.31,563.18Z" transform="translate(376 140.62)"/><path id="b-2" data-name="b" class="cls-3" d="M1556.31,576.22H-7.25s-269.3-340.91,0-412.63,342.28.22,521.19-30.8,252.45-148.16,521.19-96S1287.55-98.34,1556.31-98.34,1556.31,576.22,1556.31,576.22Z" transform="translate(376 140.62)"/><g class="cls-4"><g class="cls-5"><path class="cls-6" d="M1578.11,774.85,1767.68,413c26.25-50.11,88.67-82.85,158-82.85H2277L2087.45,692c-26.25,50.12-88.67,82.86-158,82.86Z" transform="translate(376 140.62)"/><path class="cls-6" d="M362.45,1208,778.82,413.11c57.66-110.07,194.76-182,347-182L2362.53,231l-416.38,794.87c-57.66,110.09-194.76,182-346.95,182Z" transform="translate(376 140.62)"/><path class="cls-7" d="M-307.13,490.75l234.4-447.5C-40.26-18.72,36.92-59.2,122.61-59.2H1706.13L1471.72,388.31c-32.46,62-109.64,102.46-195.32,102.46Z" transform="translate(376 140.62)"/><path class="cls-8" d="M-376,713.82-235.19,445c19.5-37.23,65.86-61.54,117.34-61.54H536.33L395.52,652.28c-19.5,37.23-65.86,61.55-117.33,61.55Z" transform="translate(376 140.62)"/><path class="cls-9" d="M-250.79,189.73-110-79.08c19.5-37.23,65.86-61.54,117.34-61.54H2035.77L1895,128.19c-19.5,37.23-65.86,61.55-117.33,61.55Z" transform="translate(376 140.62)"/></g></g><path class="cls-10" d="M1556.31,563.18l-1563.56,13s-343.24-185.83-41.57-286.9S272.62,90.45,463.5,58.26s352.81,97.81,571.61-19.56,252.44-104.43,521.2-84.87S1556.31,563.18,1556.31,563.18Z" transform="translate(376 140.62)"/></svg>